<?xml version="1.0" encoding="UTF-8" standalone="no"?>
<!DOCTYPE svg PUBLIC "-//W3C//DTD SVG 1.1//EN"
 "http://www.w3.org/Graphics/SVG/1.1/DTD/svg11.dtd">
<!-- Generated by graphviz version 7.1.0 (0)
 -->
<!-- Pages: 1 -->
<svg width="1370pt" height="476pt"
 viewBox="0.00 0.00 1370.00 476.00" xmlns="http://www.w3.org/2000/svg" xmlns:xlink="http://www.w3.org/1999/xlink">
<g id="graph0" class="graph" transform="scale(1 1) rotate(0) translate(4 472)">
<polygon fill="white" stroke="none" points="-4,4 -4,-472 1366,-472 1366,4 -4,4"/>
<!-- DJ -->
<g id="node1" class="node">
<title>DJ</title>
<ellipse fill="none" stroke="black" cx="425" cy="-306" rx="27" ry="18"/>
<text text-anchor="middle" x="425" y="-302.3" font-family="Times,serif" font-size="14.00">DJ</text>
</g>
<!-- ZH -->
<g id="node2" class="node">
<title>ZH</title>
<ellipse fill="none" stroke="black" cx="607" cy="-234" rx="27" ry="18"/>
<text text-anchor="middle" x="607" y="-230.3" font-family="Times,serif" font-size="14.00">ZH</text>
</g>
<!-- DJ&#45;&#45;ZH -->
<g id="edge1" class="edge">
<title>DJ&#45;&#45;ZH</title>
<path fill="none" stroke="black" d="M446.17,-294.6C451.01,-292.34 456.15,-290.02 461,-288 503.32,-270.37 553.81,-252.78 582.97,-242.96"/>
</g>
<!-- AA -->
<g id="node3" class="node">
<title>AA</title>
<ellipse fill="none" stroke="black" cx="353" cy="-234" rx="27" ry="18"/>
<text text-anchor="middle" x="353" y="-230.3" font-family="Times,serif" font-size="14.00">AA</text>
</g>
<!-- DJ&#45;&#45;AA -->
<g id="edge2" class="edge">
<title>DJ&#45;&#45;AA</title>
<path fill="none" stroke="black" d="M410.08,-290.5C397.72,-278.48 380.25,-261.49 367.9,-249.49"/>
</g>
<!-- YQ -->
<g id="node28" class="node">
<title>YQ</title>
<ellipse fill="none" stroke="black" cx="756" cy="-162" rx="27" ry="18"/>
<text text-anchor="middle" x="756" y="-158.3" font-family="Times,serif" font-size="14.00">YQ</text>
</g>
<!-- ZH&#45;&#45;YQ -->
<g id="edge52" class="edge">
<title>ZH&#45;&#45;YQ</title>
<path fill="none" stroke="black" d="M628.7,-222.74C633.41,-220.52 638.37,-218.18 643,-216 674.76,-201.05 711.58,-183.8 734.33,-173.14"/>
</g>
<!-- SB -->
<g id="node50" class="node">
<title>SB</title>
<ellipse fill="none" stroke="black" cx="612" cy="-162" rx="27" ry="18"/>
<text text-anchor="middle" x="612" y="-158.3" font-family="Times,serif" font-size="14.00">SB</text>
</g>
<!-- ZH&#45;&#45;SB -->
<g id="edge53" class="edge">
<title>ZH&#45;&#45;SB</title>
<path fill="none" stroke="black" d="M608.24,-215.7C609.01,-204.85 610.01,-190.92 610.78,-180.1"/>
</g>
<!-- EP -->
<g id="node46" class="node">
<title>EP</title>
<ellipse fill="none" stroke="black" cx="475" cy="-162" rx="27" ry="18"/>
<text text-anchor="middle" x="475" y="-158.3" font-family="Times,serif" font-size="14.00">EP</text>
</g>
<!-- AA&#45;&#45;EP -->
<g id="edge46" class="edge">
<title>AA&#45;&#45;EP</title>
<path fill="none" stroke="black" d="M373.15,-221.44C395.89,-208.39 432.64,-187.3 455.23,-174.34"/>
</g>
<!-- JT -->
<g id="node47" class="node">
<title>JT</title>
<ellipse fill="none" stroke="black" cx="349" cy="-162" rx="27" ry="18"/>
<text text-anchor="middle" x="349" y="-158.3" font-family="Times,serif" font-size="14.00">JT</text>
</g>
<!-- AA&#45;&#45;JT -->
<g id="edge47" class="edge">
<title>AA&#45;&#45;JT</title>
<path fill="none" stroke="black" d="M352.01,-215.7C351.39,-204.85 350.6,-190.92 349.98,-180.1"/>
</g>
<!-- LP -->
<g id="node4" class="node">
<title>LP</title>
<ellipse fill="none" stroke="black" cx="281" cy="-306" rx="27" ry="18"/>
<text text-anchor="middle" x="281" y="-302.3" font-family="Times,serif" font-size="14.00">LP</text>
</g>
<!-- LP&#45;&#45;AA -->
<g id="edge3" class="edge">
<title>LP&#45;&#45;AA</title>
<path fill="none" stroke="black" d="M295.92,-290.5C308.28,-278.48 325.75,-261.49 338.1,-249.49"/>
</g>
<!-- EE -->
<g id="node5" class="node">
<title>EE</title>
<ellipse fill="none" stroke="black" cx="480" cy="-18" rx="27" ry="18"/>
<text text-anchor="middle" x="480" y="-14.3" font-family="Times,serif" font-size="14.00">EE</text>
</g>
<!-- LP&#45;&#45;EE -->
<g id="edge4" class="edge">
<title>LP&#45;&#45;EE</title>
<path fill="none" stroke="black" d="M280.53,-287.55C280.49,-256.31 284.14,-189.81 313,-144 349.1,-86.7 421.57,-46.41 458.01,-28.86"/>
</g>
<!-- GT -->
<g id="node6" class="node">
<title>GT</title>
<ellipse fill="none" stroke="black" cx="334" cy="-378" rx="27" ry="18"/>
<text text-anchor="middle" x="334" y="-374.3" font-family="Times,serif" font-size="14.00">GT</text>
</g>
<!-- FJ -->
<g id="node7" class="node">
<title>FJ</title>
<ellipse fill="none" stroke="black" cx="497" cy="-306" rx="27" ry="18"/>
<text text-anchor="middle" x="497" y="-302.3" font-family="Times,serif" font-size="14.00">FJ</text>
</g>
<!-- GT&#45;&#45;FJ -->
<g id="edge5" class="edge">
<title>GT&#45;&#45;FJ</title>
<path fill="none" stroke="black" d="M356.62,-367.93C382.12,-357.61 424.76,-340.11 461,-324 465.67,-321.92 470.65,-319.63 475.37,-317.41"/>
</g>
<!-- AW -->
<g id="node8" class="node">
<title>AW</title>
<ellipse fill="none" stroke="black" cx="137" cy="-306" rx="27" ry="18"/>
<text text-anchor="middle" x="137" y="-302.3" font-family="Times,serif" font-size="14.00">AW</text>
</g>
<!-- GT&#45;&#45;AW -->
<g id="edge6" class="edge">
<title>GT&#45;&#45;AW</title>
<path fill="none" stroke="black" d="M309.39,-369.93C277.52,-360.54 220.42,-342.92 173,-324 168.12,-322.05 162.97,-319.76 158.13,-317.51"/>
</g>
<!-- WH -->
<g id="node39" class="node">
<title>WH</title>
<ellipse fill="none" stroke="black" cx="222" cy="-234" rx="27" ry="18"/>
<text text-anchor="middle" x="222" y="-230.3" font-family="Times,serif" font-size="14.00">WH</text>
</g>
<!-- AW&#45;&#45;WH -->
<g id="edge36" class="edge">
<title>AW&#45;&#45;WH</title>
<path fill="none" stroke="black" d="M153.39,-291.5C168.34,-279.19 190.34,-261.07 205.37,-248.69"/>
</g>
<!-- MX -->
<g id="node40" class="node">
<title>MX</title>
<ellipse fill="none" stroke="black" cx="137" cy="-234" rx="27" ry="18"/>
<text text-anchor="middle" x="137" y="-230.3" font-family="Times,serif" font-size="14.00">MX</text>
</g>
<!-- AW&#45;&#45;MX -->
<g id="edge37" class="edge">
<title>AW&#45;&#45;MX</title>
<path fill="none" stroke="black" d="M137,-287.7C137,-276.85 137,-262.92 137,-252.1"/>
</g>
<!-- RO -->
<g id="node9" class="node">
<title>RO</title>
<ellipse fill="none" stroke="black" cx="1019" cy="-378" rx="27" ry="18"/>
<text text-anchor="middle" x="1019" y="-374.3" font-family="Times,serif" font-size="14.00">RO</text>
</g>
<!-- NO -->
<g id="node10" class="node">
<title>NO</title>
<ellipse fill="none" stroke="black" cx="982" cy="-234" rx="27" ry="18"/>
<text text-anchor="middle" x="982" y="-230.3" font-family="Times,serif" font-size="14.00">NO</text>
</g>
<!-- RO&#45;&#45;NO -->
<g id="edge7" class="edge">
<title>RO&#45;&#45;NO</title>
<path fill="none" stroke="black" d="M1014.54,-359.87C1007.43,-332.58 993.6,-279.52 986.48,-252.19"/>
</g>
<!-- FD -->
<g id="node11" class="node">
<title>FD</title>
<ellipse fill="none" stroke="black" cx="1119" cy="-306" rx="27" ry="18"/>
<text text-anchor="middle" x="1119" y="-302.3" font-family="Times,serif" font-size="14.00">FD</text>
</g>
<!-- RO&#45;&#45;FD -->
<g id="edge8" class="edge">
<title>RO&#45;&#45;FD</title>
<path fill="none" stroke="black" d="M1036.88,-364.49C1054.97,-351.82 1082.78,-332.35 1100.94,-319.64"/>
</g>
<!-- QV -->
<g id="node12" class="node">
<title>QV</title>
<ellipse fill="none" stroke="black" cx="1047" cy="-306" rx="27" ry="18"/>
<text text-anchor="middle" x="1047" y="-302.3" font-family="Times,serif" font-size="14.00">QV</text>
</g>
<!-- RO&#45;&#45;QV -->
<g id="edge9" class="edge">
<title>RO&#45;&#45;QV</title>
<path fill="none" stroke="black" d="M1025.64,-360.41C1030.1,-349.25 1035.96,-334.6 1040.41,-323.47"/>
</g>
<!-- BV -->
<g id="node13" class="node">
<title>BV</title>
<ellipse fill="none" stroke="black" cx="789" cy="-306" rx="27" ry="18"/>
<text text-anchor="middle" x="789" y="-302.3" font-family="Times,serif" font-size="14.00">BV</text>
</g>
<!-- RO&#45;&#45;BV -->
<g id="edge10" class="edge">
<title>RO&#45;&#45;BV</title>
<path fill="none" stroke="black" d="M994.82,-369.64C950.65,-356.2 857.39,-327.81 813.2,-314.37"/>
</g>
<!-- EB -->
<g id="node17" class="node">
<title>EB</title>
<ellipse fill="none" stroke="black" cx="1056" cy="-234" rx="27" ry="18"/>
<text text-anchor="middle" x="1056" y="-230.3" font-family="Times,serif" font-size="14.00">EB</text>
</g>
<!-- QV&#45;&#45;EB -->
<g id="edge13" class="edge">
<title>QV&#45;&#45;EB</title>
<path fill="none" stroke="black" d="M1049.22,-287.7C1050.62,-276.85 1052.41,-262.92 1053.8,-252.1"/>
</g>
<!-- BV&#45;&#45;ZH -->
<g id="edge38" class="edge">
<title>BV&#45;&#45;ZH</title>
<path fill="none" stroke="black" d="M767.87,-294.49C763.04,-292.23 757.88,-289.94 753,-288 705.2,-268.98 690.8,-271.02 643,-252 638.12,-250.06 632.96,-247.77 628.13,-245.51"/>
</g>
<!-- PS -->
<g id="node14" class="node">
<title>PS</title>
<ellipse fill="none" stroke="black" cx="99" cy="-450" rx="27" ry="18"/>
<text text-anchor="middle" x="99" y="-446.3" font-family="Times,serif" font-size="14.00">PS</text>
</g>
<!-- FY -->
<g id="node15" class="node">
<title>FY</title>
<ellipse fill="none" stroke="black" cx="27" cy="-378" rx="27" ry="18"/>
<text text-anchor="middle" x="27" y="-374.3" font-family="Times,serif" font-size="14.00">FY</text>
</g>
<!-- PS&#45;&#45;FY -->
<g id="edge11" class="edge">
<title>PS&#45;&#45;FY</title>
<path fill="none" stroke="black" d="M84.08,-434.5C71.72,-422.48 54.25,-405.49 41.9,-393.49"/>
</g>
<!-- UV -->
<g id="node16" class="node">
<title>UV</title>
<ellipse fill="none" stroke="black" cx="171" cy="-378" rx="27" ry="18"/>
<text text-anchor="middle" x="171" y="-374.3" font-family="Times,serif" font-size="14.00">UV</text>
</g>
<!-- PS&#45;&#45;UV -->
<g id="edge12" class="edge">
<title>PS&#45;&#45;UV</title>
<path fill="none" stroke="black" d="M113.92,-434.5C126.28,-422.48 143.75,-405.49 156.1,-393.49"/>
</g>
<!-- LQ -->
<g id="node21" class="node">
<title>LQ</title>
<ellipse fill="none" stroke="black" cx="27" cy="-306" rx="27" ry="18"/>
<text text-anchor="middle" x="27" y="-302.3" font-family="Times,serif" font-size="14.00">LQ</text>
</g>
<!-- FY&#45;&#45;LQ -->
<g id="edge31" class="edge">
<title>FY&#45;&#45;LQ</title>
<path fill="none" stroke="black" d="M27,-359.7C27,-348.85 27,-334.92 27,-324.1"/>
</g>
<!-- YG -->
<g id="node41" class="node">
<title>YG</title>
<ellipse fill="none" stroke="black" cx="110" cy="-162" rx="27" ry="18"/>
<text text-anchor="middle" x="110" y="-158.3" font-family="Times,serif" font-size="14.00">YG</text>
</g>
<!-- UV&#45;&#45;YG -->
<g id="edge55" class="edge">
<title>UV&#45;&#45;YG</title>
<path fill="none" stroke="black" d="M148.82,-367.09C132.28,-358.36 110.91,-343.93 101,-324 77.2,-276.12 93.92,-210.06 103.95,-179.61"/>
</g>
<!-- MM -->
<g id="node43" class="node">
<title>MM</title>
<ellipse fill="none" stroke="black" cx="209" cy="-306" rx="27.1" ry="18"/>
<text text-anchor="middle" x="209" y="-302.3" font-family="Times,serif" font-size="14.00">MM</text>
</g>
<!-- UV&#45;&#45;MM -->
<g id="edge56" class="edge">
<title>UV&#45;&#45;MM</title>
<path fill="none" stroke="black" d="M179.81,-360.76C185.95,-349.46 194.11,-334.44 200.23,-323.15"/>
</g>
<!-- GQ -->
<g id="node35" class="node">
<title>GQ</title>
<ellipse fill="none" stroke="black" cx="1056" cy="-162" rx="27" ry="18"/>
<text text-anchor="middle" x="1056" y="-158.3" font-family="Times,serif" font-size="14.00">GQ</text>
</g>
<!-- EB&#45;&#45;GQ -->
<g id="edge29" class="edge">
<title>EB&#45;&#45;GQ</title>
<path fill="none" stroke="black" d="M1056,-215.7C1056,-204.85 1056,-190.92 1056,-180.1"/>
</g>
<!-- MV -->
<g id="node18" class="node">
<title>MV</title>
<ellipse fill="none" stroke="black" cx="1191" cy="-378" rx="27" ry="18"/>
<text text-anchor="middle" x="1191" y="-374.3" font-family="Times,serif" font-size="14.00">MV</text>
</g>
<!-- MV&#45;&#45;EB -->
<g id="edge14" class="edge">
<title>MV&#45;&#45;EB</title>
<path fill="none" stroke="black" d="M1205.29,-362.32C1221.65,-343.7 1244.11,-311.21 1227,-288 1193.81,-242.96 1122.75,-235.06 1083.49,-234.33"/>
</g>
<!-- FL -->
<g id="node19" class="node">
<title>FL</title>
<ellipse fill="none" stroke="black" cx="1191" cy="-306" rx="27" ry="18"/>
<text text-anchor="middle" x="1191" y="-302.3" font-family="Times,serif" font-size="14.00">FL</text>
</g>
<!-- MV&#45;&#45;FL -->
<g id="edge15" class="edge">
<title>MV&#45;&#45;FL</title>
<path fill="none" stroke="black" d="M1191,-359.7C1191,-348.85 1191,-334.92 1191,-324.1"/>
</g>
<!-- RN -->
<g id="node20" class="node">
<title>RN</title>
<ellipse fill="none" stroke="black" cx="99" cy="-378" rx="27" ry="18"/>
<text text-anchor="middle" x="99" y="-374.3" font-family="Times,serif" font-size="14.00">RN</text>
</g>
<!-- RN&#45;&#45;AW -->
<g id="edge16" class="edge">
<title>RN&#45;&#45;AW</title>
<path fill="none" stroke="black" d="M107.81,-360.76C113.95,-349.46 122.11,-334.44 128.23,-323.15"/>
</g>
<!-- RN&#45;&#45;LQ -->
<g id="edge17" class="edge">
<title>RN&#45;&#45;LQ</title>
<path fill="none" stroke="black" d="M84.08,-362.5C71.72,-350.48 54.25,-333.49 41.9,-321.49"/>
</g>
<!-- HF -->
<g id="node22" class="node">
<title>HF</title>
<ellipse fill="none" stroke="black" cx="1139" cy="-450" rx="27" ry="18"/>
<text text-anchor="middle" x="1139" y="-446.3" font-family="Times,serif" font-size="14.00">HF</text>
</g>
<!-- QN -->
<g id="node23" class="node">
<title>QN</title>
<ellipse fill="none" stroke="black" cx="1335" cy="-378" rx="27" ry="18"/>
<text text-anchor="middle" x="1335" y="-374.3" font-family="Times,serif" font-size="14.00">QN</text>
</g>
<!-- HF&#45;&#45;QN -->
<g id="edge18" class="edge">
<title>HF&#45;&#45;QN</title>
<path fill="none" stroke="black" d="M1163.45,-441.91C1195.13,-432.5 1251.86,-414.86 1299,-396 1303.88,-394.05 1309.03,-391.76 1313.87,-389.5"/>
</g>
<!-- HW -->
<g id="node24" class="node">
<title>HW</title>
<ellipse fill="none" stroke="black" cx="516" cy="-378" rx="27" ry="18"/>
<text text-anchor="middle" x="516" y="-374.3" font-family="Times,serif" font-size="14.00">HW</text>
</g>
<!-- HF&#45;&#45;HW -->
<g id="edge19" class="edge">
<title>HF&#45;&#45;HW</title>
<path fill="none" stroke="black" d="M1111.99,-446.81C1006.37,-438.2 624.49,-406.64 571,-396 560.51,-393.91 549.18,-390.6 539.55,-387.45"/>
</g>
<!-- SN -->
<g id="node26" class="node">
<title>SN</title>
<ellipse fill="none" stroke="black" cx="1318" cy="-306" rx="27" ry="18"/>
<text text-anchor="middle" x="1318" y="-302.3" font-family="Times,serif" font-size="14.00">SN</text>
</g>
<!-- QN&#45;&#45;SN -->
<g id="edge48" class="edge">
<title>QN&#45;&#45;SN</title>
<path fill="none" stroke="black" d="M1330.88,-360.05C1328.25,-349.21 1324.84,-335.18 1322.2,-324.28"/>
</g>
<!-- HW&#45;&#45;FJ -->
<g id="edge33" class="edge">
<title>HW&#45;&#45;FJ</title>
<path fill="none" stroke="black" d="M511.4,-360.05C508.41,-349.05 504.54,-334.76 501.56,-323.79"/>
</g>
<!-- PY -->
<g id="node25" class="node">
<title>PY</title>
<ellipse fill="none" stroke="black" cx="1263" cy="-378" rx="27" ry="18"/>
<text text-anchor="middle" x="1263" y="-374.3" font-family="Times,serif" font-size="14.00">PY</text>
</g>
<!-- PY&#45;&#45;SN -->
<g id="edge20" class="edge">
<title>PY&#45;&#45;SN</title>
<path fill="none" stroke="black" d="M1275.21,-361.46C1284.32,-349.86 1296.72,-334.08 1305.83,-322.49"/>
</g>
<!-- AT -->
<g id="node27" class="node">
<title>AT</title>
<ellipse fill="none" stroke="black" cx="871" cy="-450" rx="27" ry="18"/>
<text text-anchor="middle" x="871" y="-446.3" font-family="Times,serif" font-size="14.00">AT</text>
</g>
<!-- AT&#45;&#45;YQ -->
<g id="edge21" class="edge">
<title>AT&#45;&#45;YQ</title>
<path fill="none" stroke="black" d="M867.5,-432.13C861.04,-402.34 845.96,-338.79 825,-288 808.08,-246.98 781.08,-202.21 766.38,-178.99"/>
</g>
<!-- UY -->
<g id="node29" class="node">
<title>UY</title>
<ellipse fill="none" stroke="black" cx="899" cy="-378" rx="27" ry="18"/>
<text text-anchor="middle" x="899" y="-374.3" font-family="Times,serif" font-size="14.00">UY</text>
</g>
<!-- AT&#45;&#45;UY -->
<g id="edge22" class="edge">
<title>AT&#45;&#45;UY</title>
<path fill="none" stroke="black" d="M877.64,-432.41C882.1,-421.25 887.96,-406.6 892.41,-395.47"/>
</g>
<!-- KV -->
<g id="node30" class="node">
<title>KV</title>
<ellipse fill="none" stroke="black" cx="899" cy="-234" rx="27" ry="18"/>
<text text-anchor="middle" x="899" y="-230.3" font-family="Times,serif" font-size="14.00">KV</text>
</g>
<!-- UY&#45;&#45;KV -->
<g id="edge23" class="edge">
<title>UY&#45;&#45;KV</title>
<path fill="none" stroke="black" d="M899,-359.59C899,-332.19 899,-279.32 899,-252.11"/>
</g>
<!-- ID -->
<g id="node31" class="node">
<title>ID</title>
<ellipse fill="none" stroke="black" cx="937" cy="-306" rx="27" ry="18"/>
<text text-anchor="middle" x="937" y="-302.3" font-family="Times,serif" font-size="14.00">ID</text>
</g>
<!-- UY&#45;&#45;ID -->
<g id="edge24" class="edge">
<title>UY&#45;&#45;ID</title>
<path fill="none" stroke="black" d="M907.81,-360.76C913.95,-349.46 922.11,-334.44 928.23,-323.15"/>
</g>
<!-- PB -->
<g id="node32" class="node">
<title>PB</title>
<ellipse fill="none" stroke="black" cx="353" cy="-306" rx="27" ry="18"/>
<text text-anchor="middle" x="353" y="-302.3" font-family="Times,serif" font-size="14.00">PB</text>
</g>
<!-- UY&#45;&#45;PB -->
<g id="edge25" class="edge">
<title>UY&#45;&#45;PB</title>
<path fill="none" stroke="black" d="M872,-375.4C780.32,-369.77 481.49,-349.83 389,-324 383.81,-322.55 378.44,-320.41 373.48,-318.12"/>
</g>
<!-- PG -->
<g id="node33" class="node">
<title>PG</title>
<ellipse fill="none" stroke="black" cx="717" cy="-306" rx="27" ry="18"/>
<text text-anchor="middle" x="717" y="-302.3" font-family="Times,serif" font-size="14.00">PG</text>
</g>
<!-- UY&#45;&#45;PG -->
<g id="edge26" class="edge">
<title>UY&#45;&#45;PG</title>
<path fill="none" stroke="black" d="M874.97,-369.04C845.81,-359.22 795.32,-341.63 753,-324 748.15,-321.98 743.01,-319.66 738.17,-317.4"/>
</g>
<!-- IJ -->
<g id="node49" class="node">
<title>IJ</title>
<ellipse fill="none" stroke="black" cx="642" cy="-90" rx="27" ry="18"/>
<text text-anchor="middle" x="642" y="-86.3" font-family="Times,serif" font-size="14.00">IJ</text>
</g>
<!-- KV&#45;&#45;IJ -->
<g id="edge54" class="edge">
<title>KV&#45;&#45;IJ</title>
<path fill="none" stroke="black" d="M885.02,-218.51C865.68,-199.2 828.97,-165.01 792,-144 751.06,-120.74 698.11,-104.95 667.32,-97"/>
</g>
<!-- ID&#45;&#45;NO -->
<g id="edge30" class="edge">
<title>ID&#45;&#45;NO</title>
<path fill="none" stroke="black" d="M947.21,-289.12C954.58,-277.66 964.47,-262.26 971.83,-250.82"/>
</g>
<!-- PB&#45;&#45;AA -->
<g id="edge39" class="edge">
<title>PB&#45;&#45;AA</title>
<path fill="none" stroke="black" d="M353,-287.7C353,-276.85 353,-262.92 353,-252.1"/>
</g>
<!-- YI -->
<g id="node34" class="node">
<title>YI</title>
<ellipse fill="none" stroke="black" cx="1119" cy="-378" rx="27" ry="18"/>
<text text-anchor="middle" x="1119" y="-374.3" font-family="Times,serif" font-size="14.00">YI</text>
</g>
<!-- YI&#45;&#45;FD -->
<g id="edge27" class="edge">
<title>YI&#45;&#45;FD</title>
<path fill="none" stroke="black" d="M1119,-359.7C1119,-348.85 1119,-334.92 1119,-324.1"/>
</g>
<!-- YI&#45;&#45;FL -->
<g id="edge28" class="edge">
<title>YI&#45;&#45;FL</title>
<path fill="none" stroke="black" d="M1133.92,-362.5C1146.28,-350.48 1163.75,-333.49 1176.1,-321.49"/>
</g>
<!-- KM -->
<g id="node36" class="node">
<title>KM</title>
<ellipse fill="none" stroke="black" cx="1056" cy="-90" rx="27" ry="18"/>
<text text-anchor="middle" x="1056" y="-86.3" font-family="Times,serif" font-size="14.00">KM</text>
</g>
<!-- GQ&#45;&#45;KM -->
<g id="edge32" class="edge">
<title>GQ&#45;&#45;KM</title>
<path fill="none" stroke="black" d="M1056,-143.7C1056,-132.85 1056,-118.92 1056,-108.1"/>
</g>
<!-- CQ -->
<g id="node37" class="node">
<title>CQ</title>
<ellipse fill="none" stroke="black" cx="1128" cy="-162" rx="27" ry="18"/>
<text text-anchor="middle" x="1128" y="-158.3" font-family="Times,serif" font-size="14.00">CQ</text>
</g>
<!-- CQ&#45;&#45;KM -->
<g id="edge34" class="edge">
<title>CQ&#45;&#45;KM</title>
<path fill="none" stroke="black" d="M1113.08,-146.5C1100.72,-134.48 1083.25,-117.49 1070.9,-105.49"/>
</g>
<!-- GO -->
<g id="node38" class="node">
<title>GO</title>
<ellipse fill="none" stroke="black" cx="1128" cy="-90" rx="27" ry="18"/>
<text text-anchor="middle" x="1128" y="-86.3" font-family="Times,serif" font-size="14.00">GO</text>
</g>
<!-- CQ&#45;&#45;GO -->
<g id="edge35" class="edge">
<title>CQ&#45;&#45;GO</title>
<path fill="none" stroke="black" d="M1128,-143.7C1128,-132.85 1128,-118.92 1128,-108.1"/>
</g>
<!-- MK -->
<g id="node48" class="node">
<title>MK</title>
<ellipse fill="none" stroke="black" cx="1128" cy="-18" rx="27" ry="18"/>
<text text-anchor="middle" x="1128" y="-14.3" font-family="Times,serif" font-size="14.00">MK</text>
</g>
<!-- GO&#45;&#45;MK -->
<g id="edge49" class="edge">
<title>GO&#45;&#45;MK</title>
<path fill="none" stroke="black" d="M1128,-71.7C1128,-60.85 1128,-46.92 1128,-36.1"/>
</g>
<!-- WH&#45;&#45;JT -->
<g id="edge57" class="edge">
<title>WH&#45;&#45;JT</title>
<path fill="none" stroke="black" d="M242.4,-221.75C266.1,-208.69 304.97,-187.27 328.65,-174.22"/>
</g>
<!-- MX&#45;&#45;YG -->
<g id="edge40" class="edge">
<title>MX&#45;&#45;YG</title>
<path fill="none" stroke="black" d="M130.46,-216.05C126.22,-205.05 120.71,-190.76 116.48,-179.79"/>
</g>
<!-- DE -->
<g id="node42" class="node">
<title>DE</title>
<ellipse fill="none" stroke="black" cx="607" cy="-378" rx="27" ry="18"/>
<text text-anchor="middle" x="607" y="-374.3" font-family="Times,serif" font-size="14.00">DE</text>
</g>
<!-- DE&#45;&#45;PG -->
<g id="edge41" class="edge">
<title>DE&#45;&#45;PG</title>
<path fill="none" stroke="black" d="M626.16,-364.81C646.35,-351.96 677.95,-331.85 698.06,-319.05"/>
</g>
<!-- DE&#45;&#45;MM -->
<g id="edge42" class="edge">
<title>DE&#45;&#45;MM</title>
<path fill="none" stroke="black" d="M583.43,-368.67C573.79,-365.54 562.46,-362.21 552,-360 417.59,-331.6 377.07,-361.83 245,-324 239.82,-322.52 234.45,-320.36 229.49,-318.07"/>
</g>
<!-- PZ -->
<g id="node44" class="node">
<title>PZ</title>
<ellipse fill="none" stroke="black" cx="679" cy="-234" rx="27" ry="18"/>
<text text-anchor="middle" x="679" y="-230.3" font-family="Times,serif" font-size="14.00">PZ</text>
</g>
<!-- DE&#45;&#45;PZ -->
<g id="edge43" class="edge">
<title>DE&#45;&#45;PZ</title>
<path fill="none" stroke="black" d="M618.62,-361.78C626.16,-351.47 635.87,-337.34 643,-324 655.88,-299.89 667.03,-270.14 673.38,-251.88"/>
</g>
<!-- DS -->
<g id="node45" class="node">
<title>DS</title>
<ellipse fill="none" stroke="black" cx="607" cy="-306" rx="27" ry="18"/>
<text text-anchor="middle" x="607" y="-302.3" font-family="Times,serif" font-size="14.00">DS</text>
</g>
<!-- DE&#45;&#45;DS -->
<g id="edge44" class="edge">
<title>DE&#45;&#45;DS</title>
<path fill="none" stroke="black" d="M607,-359.7C607,-348.85 607,-334.92 607,-324.1"/>
</g>
<!-- DE&#45;&#45;EP -->
<g id="edge45" class="edge">
<title>DE&#45;&#45;EP</title>
<path fill="none" stroke="black" d="M596.04,-361.39C588.78,-350.92 579.13,-336.76 571,-324 537.78,-271.85 500.99,-208.42 484.23,-179.19"/>
</g>
<!-- PZ&#45;&#45;IJ -->
<g id="edge50" class="edge">
<title>PZ&#45;&#45;IJ</title>
<path fill="none" stroke="black" d="M674.54,-215.87C667.43,-188.58 653.6,-135.52 646.48,-108.19"/>
</g>
<!-- DS&#45;&#45;ZH -->
<g id="edge51" class="edge">
<title>DS&#45;&#45;ZH</title>
<path fill="none" stroke="black" d="M607,-287.7C607,-276.85 607,-262.92 607,-252.1"/>
</g>
<!-- IJ&#45;&#45;EE -->
<g id="edge59" class="edge">
<title>IJ&#45;&#45;EE</title>
<path fill="none" stroke="black" d="M619.81,-79.41C588.96,-66.08 533.42,-42.08 502.44,-28.7"/>
</g>
<!-- SB&#45;&#45;IJ -->
<g id="edge58" class="edge">
<title>SB&#45;&#45;IJ</title>
<path fill="none" stroke="black" d="M619.11,-144.41C623.89,-133.25 630.17,-118.6 634.94,-107.47"/>
</g>
</g>
</svg>
